<?xml version="1.0" encoding="iso-8859-1"?>
<!-- Generator: Adobe Illustrator 19.0.0, SVG Export Plug-In . SVG Version: 6.00 Build 0)  -->
<svg version="1.1" id="Capa_1" xmlns="http://www.w3.org/2000/svg" xmlns:xlink="http://www.w3.org/1999/xlink" x="0px" y="0px"
	 viewBox="0 0 512.005 512.005" style="enable-background:new 0 0 512.005 512.005;" xml:space="preserve">
<path style="fill:#303C42;" d="M440.888,64.609l-181.333-64c-2.292-0.812-4.813-0.812-7.104,0l-181.333,64
	c-4.26,1.51-7.115,5.542-7.115,10.063v128c0,165.646,24.563,226.188,187.198,308.188c1.51,0.76,3.156,1.146,4.802,1.146
	c1.646,0,3.292-0.385,4.802-1.146c162.635-82,187.198-142.542,187.198-308.188v-128C448.003,70.151,445.148,66.12,440.888,64.609z"
	/>
<path style="fill:#FAFAFA;" d="M256.003,21.984L85.336,82.224v120.448c0,19.303,0.318,36.962,1.115,53.328h169.552V21.984z"/>
<path style="fill:#546E7A;" d="M425.555,256c0.797-16.366,1.115-34.025,1.115-53.328V82.224l-170.667-60.24V256H425.555z"/>
<path style="fill:#FAFAFA;" d="M256.003,256v233.38C388.137,422.014,419.801,374.145,425.555,256H256.003z"/>
<path style="fill:#546E7A;" d="M86.451,256c5.754,118.145,37.418,166.014,169.552,233.38V256H86.451z"/>
<polygon style="opacity:0.5;fill:#FFFFFF;enable-background:new    ;" points="85.336,192.005 255.004,22.337 172.577,51.431 
	85.336,138.672 "/>
<path style="opacity:0.1;enable-background:new    ;" d="M256.003,448.003C105.565,371.305,85.336,341.286,85.336,182.63v20.042
	c0,158.656,20.229,210.01,170.667,286.708c150.438-76.698,170.667-128.052,170.667-286.708V182.63
	C426.669,341.286,406.44,371.305,256.003,448.003z"/>
<path style="fill:#303C42;" d="M352.003,213.336h-53.333v-53.333c0-5.896-4.771-10.667-10.667-10.667h-64
	c-5.896,0-10.667,4.771-10.667,10.667v53.333h-53.333c-5.896,0-10.667,4.771-10.667,10.667v64c0,5.896,4.771,10.667,10.667,10.667
	h53.333v53.333c0,5.896,4.771,10.667,10.667,10.667h64c5.896,0,10.667-4.771,10.667-10.667v-53.333h53.333
	c5.896,0,10.667-4.771,10.667-10.667v-64C362.669,218.107,357.898,213.336,352.003,213.336z"/>
<path style="fill:#E53935;" d="M341.336,277.336h-53.333c-5.896,0-10.667,4.771-10.667,10.667v53.333h-42.667v-53.333
	c0-5.896-4.771-10.667-10.667-10.667h-53.333v-42.667h53.333c5.896,0,10.667-4.771,10.667-10.667v-53.333h42.667v53.333
	c0,5.896,4.771,10.667,10.667,10.667h53.333V277.336z"/>
<linearGradient id="SVGID_1_" gradientUnits="userSpaceOnUse" x1="-36.1893" y1="635.9749" x2="-28.3465" y2="628.1331" gradientTransform="matrix(21.3333 0 0 -21.3333 996.2804 13791.7256)">
	<stop  offset="0" style="stop-color:#000000;stop-opacity:0.1"/>
	<stop  offset="1" style="stop-color:#000000;stop-opacity:0"/>
</linearGradient>
<path style="fill:url(#SVGID_1_);" d="M298.669,213.336h53.333c2.866,0,5.441,1.16,7.357,2.996l-63.599-63.599l-0.017,0.017
	c1.785,1.906,2.926,4.431,2.926,7.253V213.336z M213.336,298.669h-53.333c-2.79,0-5.283-1.126-7.182-2.878l-0.035,0.035
	l63.577,63.577c-1.858-1.919-3.026-4.516-3.026-7.401V298.669z M359.673,216.646c1.836,1.915,2.996,4.491,2.996,7.357v64
	c0,5.896-4.771,10.667-10.667,10.667h-53.333v53.333c0,5.896-4.771,10.667-10.667,10.667h-64c-2.885,0-5.482-1.168-7.401-3.026
	l97.251,97.251c76.521-48.15,102.376-93.806,109.936-176.133L359.673,216.646z"/>
<linearGradient id="SVGID_2_" gradientUnits="userSpaceOnUse" x1="-45.2066" y1="639.8678" x2="-25.9781" y2="630.9016" gradientTransform="matrix(21.3333 0 0 -21.3333 996.2804 13791.7256)">
	<stop  offset="0" style="stop-color:#FFFFFF;stop-opacity:0.2"/>
	<stop  offset="1" style="stop-color:#FFFFFF;stop-opacity:0"/>
</linearGradient>
<path style="fill:url(#SVGID_2_);" d="M440.888,64.609l-181.333-64c-2.292-0.812-4.813-0.812-7.104,0l-181.333,64
	c-4.26,1.51-7.115,5.542-7.115,10.063v128c0,165.646,24.563,226.188,187.198,308.188c1.51,0.76,3.156,1.146,4.802,1.146
	c1.646,0,3.292-0.385,4.802-1.146c162.635-82,187.198-142.542,187.198-308.188v-128C448.003,70.151,445.148,66.12,440.888,64.609z"
	/>
<g>
</g>
<g>
</g>
<g>
</g>
<g>
</g>
<g>
</g>
<g>
</g>
<g>
</g>
<g>
</g>
<g>
</g>
<g>
</g>
<g>
</g>
<g>
</g>
<g>
</g>
<g>
</g>
<g>
</g>
</svg>
